{"title":"Eurovision.Song.Contest.2014.Semifinal.2.720p.HDTV.FEED.x264.50f","uid":10133562,"size":5040292246,"categoryP":"video","categoryS":"other","magnet":"?xt=urn:btih:84b7e3179113a23206c100740061efb9d081cbae&amp;dn=Eurovision.Song.Contest.2014.Semifinal.2.720p.HDTV.FEED.x264.50f&amp;tr=udp%3A%2F%2Ftracker.openbittorrent.com%3A80&amp;tr=udp%3A%2F%2Fopen.demonii.com%3A1337&amp;tr=udp%3A%2F%2Ftracker.coppersurfer.tk%3A6969&amp;tr=udp%3A%2F%2Fexodus.desync.com%3A6969","seeders":1,"leechers":0,"uploader":"Lawry1494","files":-1,"time":1399924086,"description":"General\nComplete name                  : Eurovision.Song.Contest.2014.Semifinal.2.720p.HDTV.FEED.x264.50fps.MP2-AMX.mkv\nFormat                         : Matroska\nFormat version                 : Version 4 / Version 2\nFile size                      : 4.62 GiB\nDuration                       : 2h 0mn\nOverall bit rate               : 5 488 Kbps\nWriting application            : mkvmerge v6.9.1 ('Blue Panther') 64bit built on Apr 18 2014 18:23:38\nWriting library                : libebml v1.3.0 + libmatroska v1.4.1\n\nVideo\nID                             : 1\nFormat                         : AVC\nFormat/Info                    : Advanced Video Codec\nFormat profile                 : &lt;a class=&quot;__cf_email__&quot; href=&quot;/cdn-cgi/l/email-protection&quot; data-cfemail=&quot;9ad2f3fdf2dad6aeb4ab&quot;&gt;[email&amp;#160;protected]&lt;/a&gt;&lt;script cf-hash='f9e31' type=&quot;text/javascript&quot;&gt;\n/* &lt;![CDATA[ */!function(){try{var t=&quot;currentScript&quot;in document?document.currentScript:function(){for(var t=document.getElementsByTagName(&quot;script&quot;),e=t.length;e--;)if(t[e].getAttribute(&quot;cf-hash&quot;))return t[e]}();if(t&amp;&amp;t.previousSibling){var e,r,n,i,c=t.previousSibling,a=c.getAttribute(&quot;data-cfemail&quot;);if(a){for(e=&quot;&quot;,r=parseInt(a.substr(0,2),16),n=2;a.length-n;n+=2)i=parseInt(a.substr(n,2),16)^r,e+=String.fromCharCode(i);e=document.createTextNode(e),c.parentNode.replaceChild(e,c)}}}catch(u){}}();/* ]]&gt; */&lt;/script&gt;\nFormat settings, CABAC         : Yes\nFormat settings, ReFrames      : 8 frames\nCodec ID                       : V_MPEG4/ISO/AVC\nDuration                       : 2h 0mn\nBit rate                       : 4 995 Kbps\nWidth                          : 1 280 pixels\nHeight                         : 720 pixels\nDisplay aspect ratio           : 16:9\nFrame rate mode                : Constant\nFrame rate                     : 50.000 fps\nColor space                    : YUV\nChroma subsampling             : 4:2:0\nBit depth                      : 8 bits\nScan type                      : Progressive\nBits/(Pixel*Frame)             : 0.108\nStream size                    : 4.21 GiB (91%)\nWriting library                : x264 core 142 r2409 d6b4e63\nDefault                        : Yes\nForced                         : No\n\nAudio\nID                             : 2\nFormat                         : MPEG Audio\nFormat version                 : Version 1\nFormat profile                 : Layer 2\nMode                           : Dual mono\nCodec ID                       : A_MPEG/L2\nCodec ID/Hint                  : MP2\nDuration                       : 2h 0mn\nBit rate mode                  : Constant\nBit rate                       : 384 Kbps\nChannel(s)                     : 2 channels\nSampling rate                  : 48.0 KHz\nCompression mode               : Lossy\nDelay relative to video        : 12ms\nStream size                    : 331 MiB (7%)\nDefault                        : Yes\nForced                         : No\n\nSource: 02.ESC 2014.Semifinal 2.FEED 1080i_(ripped by J silver) Thanks!!!\n\nNotes: Unfortunately, as I mentioned in the comments of the 1st semifinal, the source file has glitch during the 2nd recap, making the audio to go horribly out of sync. The only way around that was to cut the 2nd recap entirely, but a special recap was shown later in the show, due to not finishing counting the votes, so not all is lost. Enjoy!","torrent":{"xt":"urn:btih:84b7e3179113a23206c100740061efb9d081cbae","amp;dn":"Eurovision.Song.Contest.2014.Semifinal.2.720p.HDTV.FEED.x264.50f","amp;tr":["udp%3A%2F%2Ftracker.openbittorrent.com%3A80","udp%3A%2F%2Fopen.demonii.com%3A1337","udp%3A%2F%2Ftracker.coppersurfer.tk%3A6969","udp%3A%2F%2Fexodus.desync.com%3A6969"],"infoHash":"84b7e3179113a23206c100740061efb9d081cbae","infoHashBuffer":{"type":"Buffer","data":[132,183,227,23,145,19,162,50,6,193,0,116,0,97,239,185,208,129,203,174]},"announce":[],"urlList":[]}}